<?xml version="1.0" encoding="utf-8"?>
<!-- Generator: Adobe Illustrator 24.0.1, SVG Export Plug-In . SVG Version: 6.00 Build 0)  -->
<svg version="1.1" id="Layer_1" xmlns="http://www.w3.org/2000/svg" xmlns:xlink="http://www.w3.org/1999/xlink" x="0px" y="0px"
	 viewBox="0 0 200 300" style="enable-background:new 0 0 200 300;" xml:space="preserve">
<style type="text/css">
	.st0{fill:#26528E;}
</style>
<path class="st0" d="M143.99,59.51c-6.53,8.84-10.07,18.56-10.12,29.54c-0.05,10.99,3.35,20.75,9.85,29.72
	c-0.63,0.25-1.11,0.48-1.62,0.65c-12.5,4.14-19.49,12.84-21.5,25.74c-0.15,0.95-0.71,2.05-1.43,2.67
	c-6.97,6.03-15.06,9.39-24.29,10.1c-11.8,0.91-22.03-2.71-31.11-10.14c-2.08-1.7-1.47-3.91-1.81-5.9
	c-1.39-8.15-4.59-15.27-11.36-20.37c-4.2-3.17-7.51-3.96-14.86-3.87c-0.03-0.6-0.09-1.21-0.09-1.83
	c-0.01-16.86,0.02-33.73-0.05-50.59c-0.01-1.8,0.55-2.24,2.27-2.22c6.41,0.09,12.82,0.08,19.22,0c1.54-0.02,1.96,0.51,1.95,1.97
	c-0.05,6.91-0.1,13.82-0.01,20.73c0.13,9.64,3.58,17.86,11.21,23.92c9.02,7.16,19.2,8.77,29.86,4.54
	c10.51-4.17,16.81-12.17,18.52-23.43c2.53-16.6-9.14-31.88-25.88-34.02c-1-0.13-2.03-0.08-3.04-0.08
	c-7.36-0.01-14.72-0.04-22.08,0.03c-1.51,0.01-1.97-0.44-1.95-1.95c0.07-6.66,0.06-13.31,0.01-19.97c-0.01-1.31,0.39-1.77,1.74-1.77
	c17.19,0.04,34.39,0.03,51.58,0.01c1.07,0,1.76,0.22,1.59,1.47c-1.43,10.22,6.84,19.18,15.79,22.54
	C138.8,57.93,141.29,58.63,143.99,59.51z"/>
<path class="st0" d="M65.64,262.43c0-0.83,0-1.51,0-2.19c0-5.64-0.02-11.28,0.02-16.92c0.03-3.98-0.71-3.56,3.68-3.57
	c6.41-0.01,12.81,0.1,19.22,0c11.14-0.18,19.98-4.79,25.96-14.26c11.44-18.12-0.01-42.44-21.2-45.19
	c-16.78-2.18-31.4,8.87-33.87,25.64c-0.26,1.75-0.31,3.53-0.32,5.3c-0.03,6.72,0.01,13.44,0,20.15c0,0.85,0.2,1.85-1.23,1.84
	c-7.35-0.02-14.69-0.01-22.19-0.01c0-18.67,0-37.21,0-56.08c6.68,0.82,12.49-1.13,17.3-5.79c4.66-4.51,7.25-10.14,8.64-16.6
	c19.78,13.25,39.53,13.35,59.52,0.34c0.19,0.58,0.39,1.21,0.61,1.83c4.33,12.29,12.98,19.26,25.88,21.08
	c0.84,0.12,1.8,0.66,2.35,1.3c6.04,6.96,9.47,15.01,10.21,24.23c0.9,11.12-2.24,20.95-8.94,29.81c-1.5,1.98-3.26,2.63-5.57,2.92
	c-8.69,1.09-16.2,4.51-21.48,11.81c-3.07,4.23-4.14,9.03-3.41,14.36C102.43,262.43,84.2,262.43,65.64,262.43z"/>
<path class="st0" d="M79.16,233.17c-3.93,0-7.86-0.03-11.8,0.02c-1.22,0.02-1.68-0.37-1.68-1.63c0.04-7.79-0.16-15.6,0.07-23.38
	c0.33-11.35,10.51-21.03,21.89-21.59c13.56-0.67,22.47,9.36,24.37,18.63c2.55,12.48-6.03,25.72-18.63,27.48
	c-4.65,0.65-9.47,0.11-14.22,0.11C79.16,232.92,79.16,233.05,79.16,233.17z"/>
<path class="st0" d="M65.59,85.37c-0.56-2.86,0.87-4.67,2.84-6.55c5.08-4.86,9.95-9.95,14.93-14.91c0.37-0.37,0.93-0.72,1.44-0.76
	c14.46-1.29,24.61,6.67,27.3,18.5c2.85,12.56-5.71,25.54-18.42,27.9c-13.18,2.45-25.81-6.37-27.6-19.28
	C65.83,88.64,65.74,87,65.59,85.37z"/>
<path class="st0" d="M12.83,147.48c5.54-3.68,8.55-9.17,12.14-14.22c1.52-2.15,3.26-4.24,5.27-5.93c5.5-4.65,12.71-4.43,17.94,0.54
	c6.29,5.98,8.18,13.65,7.65,22.01c-0.37,5.81-2.21,11.15-6.08,15.65c-5.92,6.88-14.63,7.3-20.95,0.79
	c-2.32-2.38-4.21-5.21-6.09-7.97C19.98,154.35,17.21,150.44,12.83,147.48z"/>
</svg>
